<svg width="18" height="18" viewBox="0 0 18 18" fill="none" xmlns="http://www.w3.org/2000/svg">
<circle cx="8.90956" cy="8.90956" r="8.90956" fill="#D9D9D9"/>
<path d="M13.5 11.8929L10.7679 9.16071C10.6791 9.07196 10.6791 8.92804 10.7679 8.83929L13.5 6.10714C13.9438 5.66337 13.9438 4.94377 13.5 4.5C13.0562 4.05623 12.3366 4.05623 11.8929 4.5L9.16071 7.23214C9.07196 7.3209 8.92804 7.3209 8.83929 7.23214L6.10714 4.5C5.66337 4.05623 4.94377 4.05623 4.5 4.5C4.05623 4.94377 4.05623 5.66337 4.5 6.10714L7.23214 8.83929C7.3209 8.92804 7.3209 9.07196 7.23214 9.16071L4.5 11.8929C4.05623 12.3366 4.05623 13.0562 4.5 13.5C4.94377 13.9438 5.66337 13.9438 6.10714 13.5L8.83929 10.7679C8.92804 10.6791 9.07196 10.6791 9.16071 10.7679L11.8929 13.5C12.3366 13.9438 13.0562 13.9438 13.5 13.5C13.9438 13.0562 13.9438 12.3366 13.5 11.8929Z" fill="#7C7C7C"/>
</svg>
