<svg width="21" height="20" viewBox="0 0 21 20" fill="none" xmlns="http://www.w3.org/2000/svg">
<path d="M1.86047 15.6098L14.8837 1.95122C15.1369 1.68565 15.5607 1.68565 15.814 1.95122V1.95122M1.86047 15.6098L4.18605 17.8049M1.86047 15.6098L0.930233 18.0488M15.814 1.95122L16.9507 0.759042C17.3447 0.345809 18.0113 0.353298 18.4053 0.766531V0.766531C18.7736 1.15285 18.7801 1.76717 18.4118 2.15349L17.2093 3.41463M15.814 1.95122L17.2093 3.41463M17.2093 3.41463L17.6744 3.90244M17.6744 3.90244L16.7442 4.91289M17.6744 3.90244L19.342 5.65139C19.7104 6.03771 19.7104 6.64522 19.342 7.03154L19.0698 7.31707C18.1395 8.29268 16.186 10.3415 15.814 10.7317C15.3488 11.2195 14.8837 11.7073 14.4186 11.2195C14.0465 10.8293 14.5736 10.0813 14.8837 9.7561L17.4736 7.03991C17.8451 6.65021 17.8415 6.03628 17.4652 5.65109L16.7442 4.91289M4.18605 17.8049L1.86047 19.0244M4.18605 17.8049L16.7442 4.91289M1.86047 19.0244V19.0244C1.26486 19.3367 0.614621 18.7108 0.904038 18.1037L0.930233 18.0488M1.86047 19.0244L0.930233 18.0488" stroke="black" strokeWidth="0.8"/>
</svg>
